<svg xmlns="http://www.w3.org/2000/svg" viewBox="0 0 512 512" fill="none" role="img" aria-label="Solitaire">
  <defs>
    <linearGradient id="felt" x1="64" y1="48" x2="448" y2="464" gradientUnits="userSpaceOnUse">
      <stop stop-color="#226b3d"/>
      <stop offset="1" stop-color="#143d22"/>
    </linearGradient>
    <linearGradient id="card" x1="0" y1="0" x2="0" y2="1">
      <stop stop-color="#fffef8"/>
      <stop offset="1" stop-color="#f0ead8"/>
    </linearGradient>
    <filter id="shadow" x="-20%" y="-10%" width="140%" height="130%">
      <feDropShadow dx="0" dy="6" stdDeviation="8" flood-color="#000" flood-opacity="0.3"/>
    </filter>
  </defs>

  <rect width="512" height="512" fill="url(#felt)"/>

  <g transform="translate(256 256) scale(0.72) translate(-256 -256)" filter="url(#shadow)">
    <g transform="translate(118 108) rotate(-14 100 150)">
      <rect width="200" height="280" rx="22" fill="url(#card)" stroke="#c9a227" stroke-width="8"/>
      <path
        d="M100 118c-22 0-40 16-40 36 0 14 9 26 22 32-8 5-13 14-13 24 0 18 14 32 31 32s31-14 31-32c0-10-5-19-13-24 13-6 22-18 22-32 0-20-18-36-40-36z"
        fill="#1a472a"
      />
    </g>

    <g transform="translate(156 92)">
      <rect width="200" height="280" rx="22" fill="url(#card)" stroke="#c9a227" stroke-width="8"/>
      <path
        d="M100 96c-28 0-50 22-50 49 0 19 11 35 28 44-10 7-16 18-16 30 0 24 17 43 38 43s38-19 38-43c0-12-6-23-16-30 17-9 28-25 28-44 0-27-22-49-50-49z"
        fill="#b91c1c"
      />
    </g>

    <g transform="translate(194 108) rotate(14 100 150)">
      <rect width="200" height="280" rx="22" fill="#1e4d8c" stroke="#f8f6f0" stroke-width="8"/>
      <path
        d="M100 200h-36v-24c0-22 16-40 36-40s36 18 36 40v24zm-8-88c0-15 12-27 28-27s28 12 28 27-12 27-28 27-28-12-28-27z"
        fill="#f8f6f0"
      />
    </g>
  </g>
</svg>
